<?xml version="1.0" standalone="no"?>
<!DOCTYPE svg PUBLIC "-//W3C//DTD SVG 20010904//EN"
 "http://www.w3.org/TR/2001/REC-SVG-20010904/DTD/svg10.dtd">
<svg version="1.0" xmlns="http://www.w3.org/2000/svg"
 width="500.000000pt" height="500.000000pt" viewBox="0 0 500.000000 500.000000"
 preserveAspectRatio="xMidYMid meet">
<metadata>
Created by potrace 1.11, written by Peter Selinger 2001-2013
</metadata>
<g transform="translate(0.000000,500.000000) scale(0.100000,-0.100000)"
fill="#000000" stroke="none">
<path d="M2427 4988 c2 -5 -44 -8 -104 -8 -93 0 -115 -4 -159 -24 -95 -44
-133 -132 -149 -346 -1 -19 -3 -38 -4 -42 -3 -17 -35 -38 -73 -48 -54 -15
-118 -58 -129 -88 -5 -13 -9 -75 -9 -139 l0 -116 36 -33 c19 -19 34 -34 32
-35 -2 -1 -14 -3 -28 -5 -83 -13 -128 -22 -153 -33 -37 -14 -50 -14 -41 2 6
10 4 10 -7 0 -8 -8 -41 -13 -84 -13 -61 0 -77 -4 -116 -29 -48 -30 -89 -75
-89 -97 0 -8 -5 -14 -10 -14 -12 0 -180 -92 -224 -123 -16 -11 -65 -38 -108
-59 -44 -21 -91 -46 -106 -56 -15 -10 -41 -28 -59 -40 -18 -12 -41 -22 -53
-22 -11 0 -28 -4 -38 -9 -9 -6 -71 -35 -137 -66 -66 -30 -133 -63 -150 -72
-16 -8 -61 -31 -98 -51 -71 -36 -124 -89 -165 -165 -20 -37 -22 -56 -22 -174
0 -136 21 -297 45 -343 7 -14 23 -52 35 -85 12 -33 39 -100 60 -150 32 -76 37
-98 33 -140 -9 -86 -10 -338 -3 -390 13 -88 35 -151 81 -230 53 -93 116 -153
207 -196 92 -44 182 -59 348 -59 169 0 187 -8 198 -87 4 -26 11 -73 17 -103 6
-30 15 -122 20 -205 6 -83 16 -164 24 -182 8 -17 21 -65 29 -106 9 -41 18 -81
20 -88 3 -8 7 -57 10 -110 3 -53 13 -113 22 -134 8 -20 18 -74 21 -118 3 -45
11 -91 19 -102 8 -11 30 -42 49 -70 19 -27 46 -63 60 -78 14 -15 25 -36 25
-47 0 -10 11 -27 25 -38 24 -19 46 -19 646 -20 l622 0 22 22 c16 16 22 35 24
75 1 29 6 62 12 73 6 12 15 55 19 97 7 70 70 338 85 362 4 5 11 39 16 76 5 36
21 89 35 117 16 32 27 73 30 115 3 48 13 80 35 121 42 76 89 214 97 282 l7 58
40 -57 c22 -32 64 -81 93 -110 l52 -53 107 0 c106 0 194 18 264 56 14 7 30 10
35 6 5 -4 6 -3 2 2 -4 5 -1 14 8 21 13 9 24 8 50 -4 28 -13 33 -21 34 -49 0
-52 46 -92 104 -92 25 0 46 -4 46 -10 0 -16 57 -40 95 -40 22 0 50 -10 73 -25
34 -23 45 -25 153 -25 103 0 119 2 143 21 15 12 45 23 67 25 22 2 54 12 72 21
18 10 52 25 76 33 86 30 118 144 112 395 -1 17 -17 55 -36 85 -19 30 -35 62
-35 71 0 23 -47 59 -76 59 -19 0 -24 5 -24 24 0 12 -11 35 -25 50 -20 22 -32
26 -78 26 -36 0 -59 5 -67 15 -7 9 -29 15 -54 15 -23 0 -59 9 -81 20 -33 17
-59 20 -171 20 -129 0 -133 -1 -152 -25 -21 -26 -56 -32 -122 -19 -28 6 -36
15 -58 63 -14 31 -33 67 -44 80 -10 13 -18 35 -18 48 0 13 -9 45 -19 71 -11
26 -32 79 -46 117 -15 39 -31 74 -36 79 -5 6 -9 27 -9 48 0 44 -22 93 -45 101
-8 4 -15 17 -15 30 0 13 -10 39 -23 58 -46 68 -46 63 -55 414 -4 149 -11 275
-14 281 -8 12 -15 52 -29 163 -22 174 -104 264 -324 351 -11 4 -32 12 -46 18
-17 7 -28 20 -32 39 -3 15 -22 45 -41 67 -41 44 -44 56 -16 56 11 0 26 10 34
23 14 22 35 103 39 145 1 12 4 22 7 23 3 0 24 2 47 4 22 2 54 10 71 19 16 8
31 13 34 11 7 -8 11 40 12 163 1 117 0 125 -22 142 -12 10 -48 24 -80 30 -31
6 -67 13 -79 16 -13 2 -24 14 -27 27 -2 12 -10 49 -16 82 -15 79 -39 145 -62
171 -10 11 -18 28 -18 37 0 9 -4 19 -10 22 -5 3 -10 17 -10 31 0 38 -40 71
-101 83 -66 13 -409 29 -402 19z m178 -201 c99 -4 133 -18 141 -57 10 -44 36
-110 44 -110 9 0 48 -93 55 -130 8 -41 13 -73 20 -112 5 -35 9 -38 46 -44 22
-4 42 -11 46 -17 4 -6 0 -8 -9 -5 -27 11 -39 -8 -54 -83 -15 -73 -35 -109 -59
-109 -25 0 -56 -36 -66 -75 -6 -22 -10 -86 -10 -143 l0 -103 53 -55 c46 -48
64 -72 88 -124 4 -8 36 -27 71 -41 125 -50 156 -67 211 -118 67 -62 94 -119
107 -227 6 -44 17 -112 25 -153 9 -40 13 -79 9 -84 -10 -16 -5 -278 7 -351 5
-35 11 -90 11 -122 1 -63 16 -110 49 -151 11 -14 20 -36 20 -49 0 -12 8 -29
18 -36 29 -20 42 -52 42 -100 0 -24 5 -49 11 -55 12 -12 59 -122 59 -138 0 -6
9 -28 20 -50 11 -22 20 -51 20 -65 0 -14 7 -36 17 -49 9 -13 29 -50 44 -82 23
-46 36 -62 66 -75 51 -22 275 -31 346 -15 103 24 247 18 247 -11 0 -5 12 -9
28 -8 69 5 92 0 107 -24 9 -13 17 -34 18 -45 1 -15 8 -21 27 -21 14 0 32 -6
40 -13 23 -18 75 -129 71 -152 -5 -33 -50 -85 -74 -85 -12 0 -37 -9 -55 -20
-18 -11 -41 -20 -52 -20 -11 0 -20 -4 -20 -8 0 -4 -16 -8 -35 -8 -19 0 -35 4
-35 8 0 4 -24 8 -54 8 -42 0 -58 4 -68 19 -15 21 -15 21 -65 21 -23 1 -48 9
-62 21 -22 18 -28 33 -30 82 -1 10 -12 22 -26 27 -14 5 -40 25 -59 45 -19 19
-37 35 -40 35 -2 0 -17 5 -33 12 -15 6 -37 11 -48 11 -11 1 -23 6 -27 11 -5 8
-8 8 -8 1 0 -7 -25 -11 -60 -10 -54 1 -62 -2 -77 -24 -27 -41 -58 -68 -109
-94 -39 -20 -53 -23 -65 -14 -22 17 -147 182 -174 231 -13 22 -29 44 -36 48
-83 42 -108 48 -202 48 l-97 0 -1 -87 c0 -49 0 -110 1 -137 1 -43 -4 -67 -30
-131 -5 -11 -11 -32 -14 -46 -3 -15 -21 -53 -39 -86 -26 -45 -35 -76 -39 -125
-4 -41 -15 -87 -32 -122 -14 -30 -28 -78 -31 -105 -3 -28 -10 -62 -15 -77 -24
-62 -90 -339 -90 -378 -1 -22 -7 -59 -15 -81 -8 -22 -15 -61 -15 -87 0 -35 -6
-54 -20 -68 -19 -19 -33 -20 -470 -20 -437 0 -451 1 -470 20 -11 11 -20 27
-20 35 0 8 -13 30 -30 48 -17 19 -30 38 -30 42 0 7 -53 78 -77 103 -7 7 -13
37 -14 65 -1 64 -5 89 -25 151 -8 27 -18 84 -20 125 -6 91 -41 276 -60 312 -8
17 -16 82 -20 180 -3 85 -10 159 -14 164 -4 6 -10 31 -14 58 -3 26 -9 67 -12
92 -4 26 -16 55 -30 70 -20 22 -31 25 -89 25 -45 0 -65 4 -65 13 0 8 -4 7 -10
-3 -8 -12 -13 -13 -29 -3 -13 8 -22 9 -26 2 -5 -6 -12 -6 -22 2 -9 8 -17 9
-21 3 -15 -21 -147 -4 -227 29 -109 46 -174 103 -238 210 -70 119 -90 232 -64
370 8 43 14 121 13 175 -3 99 -12 130 -82 265 -7 16 -14 35 -14 43 0 8 -9 31
-20 51 -11 21 -20 45 -20 53 0 9 -6 25 -14 36 -8 11 -19 48 -26 82 -9 52 -8
66 5 92 31 61 108 140 135 140 10 0 23 7 30 15 7 9 20 13 29 10 8 -3 12 -3 8
1 -7 7 74 54 94 54 7 0 20 6 28 14 20 17 240 116 259 116 8 0 26 8 40 18 33
23 64 36 77 33 6 -2 7 1 2 5 -9 9 42 44 65 44 9 0 18 5 20 11 2 5 10 11 18 13
8 1 25 8 38 14 12 7 22 11 22 8 0 -2 13 9 30 25 16 17 34 28 39 24 5 -3 13 0
16 5 4 6 17 15 28 21 12 5 45 23 72 39 28 16 60 34 73 40 12 5 22 16 22 23 0
18 39 59 50 52 6 -3 7 1 4 9 -5 14 6 21 21 14 2 -2 10 6 18 16 11 15 29 20 78
22 57 3 115 10 204 28 43 9 89 16 98 16 4 0 24 7 45 16 20 8 45 17 55 19 10 2
31 16 46 31 27 25 29 32 30 116 1 58 -3 100 -13 121 -7 18 -16 39 -19 48 -4
12 -23 19 -63 24 -56 7 -57 8 -34 21 14 7 48 20 77 29 55 16 61 27 68 110 7
98 29 194 53 235 32 56 38 61 87 86 42 21 45 21 270 11z"/>
</g>
</svg>
